<svg width="242" height="42" viewBox="0 0 242 42" fill="none" xmlns="http://www.w3.org/2000/svg">
<path d="M202.16 10.5281H202.17C201.937 7.03838 200.335 5.90527 196.104 5.90527H194.098V22.0496C194.098 27.6055 197.468 29.7432 201.775 29.7432C201.908 29.7432 202.032 29.7289 202.16 29.7241V10.5281V10.5281Z" fill="white"/>
<path d="M68.858 29.8936C61.2483 29.8936 57.1053 26.183 57.1053 18.6813V5.75866H60.2673C63.815 5.75866 65.3532 6.9559 65.3532 10.5334V18.8903C65.3532 22.3443 66.977 23.4085 69.2009 23.4085C71.1247 23.4085 72.6629 22.3015 72.6629 18.591V5.75391H75.8248C79.0725 5.75391 80.8678 7.11743 80.8678 10.5286V18.8856C80.8631 26.3968 76.0772 29.8936 68.858 29.8936Z" fill="white"/>
<path d="M239.177 29.2101C234.866 29.2101 233.887 27.3762 233.887 24.4781V15.8219C233.887 12.7955 232.866 11.6838 230.518 11.6838C228.256 11.6838 227.491 13.3466 227.491 15.6936V29.2101H224.677C221.393 29.2101 219.644 28.1411 219.644 24.4781V15.6081C219.644 12.8383 218.575 11.6838 216.446 11.6838C214.184 11.6838 213.29 12.8335 213.29 15.7364V29.2101H210.477C206.85 29.2101 205.187 27.4617 205.187 24.4781V16.2447C205.187 9.4223 209.108 5.0752 216.574 5.0752C220.243 5.0752 223.014 7.33665 223.784 9.25604C224.891 7.46492 227.752 5.0752 231.121 5.0752C237.946 5.0752 242 9.12775 242 16.4632V29.2148H239.177V29.2101Z" fill="white"/>
<path d="M181.732 27.6462C182.761 28.7536 183.57 29.2146 186.05 29.2146H192.205H192.438C190.739 27.4703 185.76 21.6384 183.765 18.7676H183.756C183.256 18.0166 182.761 17.2656 182.275 16.5384C184.412 13.468 189.815 7.24634 191.267 5.75391H191.034H185.35C182.87 5.75391 182.061 6.21494 181.033 7.32239C178.724 9.79869 176.106 13.9005 174.183 16.7618L181.732 27.6462Z" fill="white"/>
<path d="M41.1503 20.6924C38.7194 20.6924 37.1003 19.4136 37.1003 15.9146C37.1003 13.181 38.5057 11.6026 40.9367 11.6026C43.3676 11.6026 44.6448 12.8387 44.6448 16.2949C44.6448 18.9429 43.4056 20.6924 41.1503 20.6924ZM52.6119 24.3198C52.5692 23.2121 52.5264 22.3564 52.5264 21.8002V15.6151C52.5264 9.21602 49.2029 5.0752 42.0857 5.0752C34.1186 5.0752 29.043 10.2381 29.043 16.68C29.043 23.9775 33.8147 27.0439 39.7402 26.9631C42.3895 26.9298 43.9896 25.5131 44.4976 24.0203V24.8285V26.193C44.4976 28.7079 43.0353 30.5667 39.3129 30.5858C39.2511 30.5858 39.1989 30.581 39.1372 30.581V30.5905H31.0894V31.0089C31.0894 33.9945 33.6913 36.9848 40.3812 36.9848C47.7927 36.9848 52.6546 32.4208 52.6546 26.7016C52.6546 25.8554 52.6546 25.0472 52.6119 24.3198Z" fill="white"/>
<path d="M174.098 10.3621H174.107C173.874 6.88343 172.272 5.75391 168.042 5.75391H166.036V21.8471C166.036 27.3855 169.406 29.5164 173.717 29.5164C173.851 29.5164 173.974 29.5021 174.102 29.4974V10.3621H174.098Z" fill="white"/>
<path d="M19.124 5.75391H17.116V16.788L7.00437 7.17294L6.9901 7.16819C6.19069 6.28546 4.90116 5.87258 2.96925 5.77766H2.95973C2.65519 5.76342 2.34114 5.75391 2.00329 5.75391H0V21.8471C0 27.3855 3.37371 29.5164 7.68483 29.5164C7.81806 29.5164 7.94178 29.5021 8.07026 29.4974V17.2056L18.9337 27.357V27.3523C20.3327 28.8614 22.4216 29.5164 24.8008 29.5164C24.934 29.5164 25.0578 29.5021 25.1862 29.4974V10.3621H25.1958C24.9626 6.88343 23.3638 5.75391 19.124 5.75391Z" fill="white"/>
<path d="M155.536 5.75391H153.534V16.788L143.453 7.17294L143.438 7.16819C142.641 6.28546 141.356 5.87258 139.43 5.77766H139.42C139.116 5.76342 138.803 5.75391 138.467 5.75391H136.464V21.8471C136.464 27.3855 139.828 29.5164 144.126 29.5164C144.259 29.5164 144.382 29.5021 144.511 29.4974V17.2056L155.341 27.357V27.3523C156.736 28.8614 158.819 29.5164 161.191 29.5164C161.324 29.5164 161.447 29.5021 161.575 29.4974V10.3621H161.585C161.352 6.88343 159.758 5.75391 155.536 5.75391Z" fill="white"/>
<path d="M87.082 17.8152C85.3501 13.551 83.9275 9.04465 83.4327 5.75391H87.6577C89.6656 5.75391 91.759 6.98853 92.2253 9.07789C93.0389 12.7865 94.6614 17.3024 95.8984 20.161C97.6494 16.6233 99.4859 10.3173 99.9998 5.75391H103.887C106.237 5.75391 107.346 6.8603 107.346 8.73598C107.346 11.21 105.129 18.0289 102.521 23.0149C95.946 35.6318 94.2808 36.9091 89.3658 36.9091C86.7632 36.9091 84.5841 35.5036 84.5841 32.8586V30.8975H88.9424C91.0787 30.7265 91.7638 29.5394 92.0588 27.7017C90.4554 25.3132 88.6426 21.6615 87.082 17.8152Z" fill="white"/>
<path d="M121.769 11.0606C124.113 11.0606 125.183 12.3402 125.183 13.5343C125.183 15.1898 124.503 15.1564 120.661 15.1564H117.503C117.712 12.8968 118.906 11.0606 121.769 11.0606ZM122.387 23.8192C119.691 23.5956 118.131 22.4539 117.712 20.3703H121.212C131.803 20.3703 132.693 20.1134 132.693 14.4334C132.693 8.45843 127.913 5 121.764 5C114.507 5 109.685 10.8084 109.685 17.9394C109.685 24.4281 113.95 29.894 122.064 29.894C128.764 29.894 132.046 27.2062 132.046 24.214V23.8192H122.387V23.8192Z" fill="white"/>
</svg>
